<?xml version="1.0" encoding="UTF-8"?>
<svg id="Layer_1" xmlns="http://www.w3.org/2000/svg" version="1.1" viewBox="0 0 609.9 523.4">
  <!-- Generator: Adobe Illustrator 30.5.1, SVG Export Plug-In . SVG Version: 2.1.4 Build 3)  -->
  <defs>
    <style>
      .st0, .st1, .st2 {
        fill: none;
      }

      .st3, .st4, .st5, .st6, .st7, .st8, .st9, .st10, .st11, .st12 {
        isolation: isolate;
      }

      .st3, .st4, .st8, .st9, .st11 {
        font-family: Helvetica, Helvetica;
      }

      .st3, .st6, .st7, .st11 {
        font-size: 10px;
      }

      .st3, .st8 {
        fill: #fdf3e0;
      }

      .st4 {
        fill: #e8f5e8;
      }

      .st4, .st5, .st8, .st9 {
        font-size: 11px;
      }

      .st5, .st13, .st12 {
        fill: #7cb87c;
      }

      .st5, .st10 {
        font-family: Helvetica-Bold, Helvetica;
        font-weight: 700;
      }

      .st6 {
        fill: #b8d4f5;
      }

      .st6, .st7 {
        font-family: CourierNewPSMT, 'Courier New';
      }

      .st1 {
        stroke: #999;
        stroke-width: 1.5px;
      }

      .st14 {
        fill: #4a90d9;
      }

      .st7 {
        fill: #c8ecc8;
      }

      .st9 {
        fill: #222;
      }

      .st15 {
        fill: #1a5fa8;
      }

      .st16 {
        fill: #e8a838;
      }

      .st17 {
        fill: #3a7a3a;
      }

      .st2 {
        stroke: #f0c070;
        stroke-dasharray: 3 2;
      }

      .st10 {
        fill: #fff;
        font-size: 13px;
      }

      .st18 {
        fill: #999;
      }

      .st11 {
        fill: #888;
      }

      .st12 {
        opacity: .4;
      }
    </style>
  </defs>
  <rect class="st14" x="518.7" y="63" width="12" height="12" rx="2" ry="2"/>
  <text class="st9" transform="translate(534.7 74)"><tspan x="0" y="0">One-time setup</tspan></text>
  <rect class="st16" x="502.7" y="455.3" width="12" height="12" rx="2" ry="2"/>
  <text class="st9" transform="translate(518.7 466.3)"><tspan x="0" y="0">Portal (manual)</tspan></text>
  <rect class="st12" x="21.5" y="156" width="3" height="367.4" rx="1" ry="1"/>
  <text class="st5" transform="translate(9.5 408.1) rotate(-90)"><tspan x="0" y="0">REPEAT PER BATCH</tspan></text>
  <rect class="st14" x="177.5" width="300" height="60" rx="8" ry="8"/>
  <text class="st10" transform="translate(262.8 22)"><tspan x="0" y="0">1. List files to upload</tspan></text>
  <rect class="st15" x="187.5" y="30" width="280" height="20" rx="4" ry="4"/>
  <text class="st6" transform="translate(218.4 44)"><tspan x="0" y="0">du *ba* &gt; data_paths/bam.list.eso01.txt</tspan></text>
  <path class="st0" d=""/>
  <path class="st18" d="M332,62h-9l4.5,12,4.5-12Z"/>
  <path class="st18" d="M327.5,78" marker-end="url(#arr)"/>
  <rect class="st14" x="177.5" y="78" width="300" height="60" rx="8" ry="8"/>
  <text class="st10" transform="translate(242.8 100)"><tspan x="0" y="0">2. Split into &lt;10 TB batches</tspan></text>
  <rect class="st15" x="187.5" y="108" width="280" height="20" rx="4" ry="4"/>
  <text class="st6" transform="translate(201.4 122)"><tspan x="0" y="0">python split_by_size.py bam.list.eso01.txt</tspan></text>
  <path class="st0" d=""/>
  <path class="st18" d="M332,141h-9l4.5,12,4.5-12Z"/>
  <path class="st18" d="M327.5,156" marker-end="url(#arr)"/>
  <rect class="st13" x="177.5" y="156" width="300" height="60" rx="8" ry="8"/>
  <text class="st10" transform="translate(276.9 178)"><tspan x="0" y="0">3. Encrypt batch</tspan></text>
  <rect class="st17" x="187.5" y="186" width="280" height="20" rx="4" ry="4"/>
  <text class="st7" transform="translate(210.4 200)"><tspan x="0" y="0">sbatch --array=1 Encrypt_batch.sh eso01</tspan></text>
  <path class="st0" d=""/>
  <path class="st18" d="M332,219h-9l4.5,12,4.5-12Z"/>
  <path class="st18" d="M327.5,234" marker-end="url(#arr)"/>
  <rect class="st13" x="177.5" y="234" width="300" height="48" rx="8" ry="8"/>
  <text class="st10" transform="translate(263.2 254)"><tspan x="0" y="0">4. Upload via Globus</tspan></text>
  <text class="st4" transform="translate(229.1 272)"><tspan x="0" y="0">Wait for confirmation email (~1 GB/hour)</tspan></text>
  <line class="st1" x1="327.5" y1="282" x2="327.5" y2="300"/>
  <line class="st1" x1="197.5" y1="300" x2="457.5" y2="300"/>
  <path class="st0" d=""/>
  <path class="st18" d="M202,309h-9l4.5,12,4.5-12Z"/>
  <path class="st18" d="M197.5,318" marker-end="url(#arr)"/>
  <path class="st0" d=""/>
  <path class="st18" d="M462,309h-9l4.5,12,4.5-12Z"/>
  <path class="st18" d="M457.5,318" marker-end="url(#arr)"/>
  <text class="st11" transform="translate(140.7 314)"><tspan x="0" y="0">first batch</tspan></text>
  <text class="st11" transform="translate(467.5 314.2)"><tspan x="0" y="0">remaining batches</tspan></text>
  <rect class="st16" x="62.5" y="318" width="260" height="64.6" rx="8" ry="8"/>
  <text class="st10" transform="translate(97.8 338)"><tspan x="0" y="0">5a. Register metadata in portal</tspan></text>
  <text class="st8" transform="translate(117.3 356)"><tspan x="0" y="0">Study · Samples · Experiments</tspan></text>
  <text class="st8" transform="translate(101.4 372)"><tspan x="0" y="0">Dataset · First analysis (sanity check)</tspan></text>
  <rect class="st13" x="332.5" y="318" width="255" height="60" rx="8" ry="8"/>
  <text class="st10" transform="translate(391.9 338)"><tspan x="0" y="0">5b. Register via script</tspan></text>
  <rect class="st17" x="336.9" y="346" width="246.8" height="20" rx="4" ry="4"/>
  <text class="st7" transform="translate(339.4 360)"><tspan x="0" y="0">python Register_metadata.py eso01_batch2</tspan></text>
  <path class="st0" d=""/>
  <line class="st1" x1="192.5" y1="384" x2="192.5" y2="400"/>
  <line class="st1" x1="192.5" y1="400" x2="459.5" y2="400"/>
  <path class="st0" d=""/>
  <path class="st18" d="M332,404h-9l4.5,12,4.5-12Z"/>
  <path class="st18" d="M327.5,418" marker-end="url(#arr)"/>
  <rect class="st16" x="177.5" y="418" width="300" height="86.6" rx="8" ry="8"/>
  <text class="st10" transform="translate(258.1 438)"><tspan x="0" y="0">6. Finalise submission</tspan></text>
  <text class="st8" transform="translate(255.8 456)"><tspan x="0" y="0">Triggers ingestion (up to 48h)</tspan></text>
  <line class="st2" x1="187.5" y1="466" x2="467.5" y2="466"/>
  <text class="st8" transform="translate(228 482)"><tspan x="0" y="0">Verify file archival · Delete encrypted data</tspan></text>
  <text class="st3" transform="translate(238.5 495)"><tspan x="0" y="0">submission.ega-archive.org/files/archive</tspan></text>
  <path class="st0" d=""/>
  <path class="st13" d="M486.5,180.5v-9l-12,4.5,12,4.5Z"/>
  <path class="st13" d="M477.5,254.2" marker-end="url(#arr-loop)"/>
  <line class="st1" x1="197.5" y1="300" x2="197.5" y2="316"/>
  <line class="st1" x1="457.5" y1="300" x2="457.5" y2="316"/>
  <line class="st1" x1="458.7" y1="383.4" x2="458.7" y2="399.4"/>
</svg>